<svg xmlns="http://www.w3.org/2000/svg" xmlns:xlink="http://www.w3.org/1999/xlink" viewBox="0 0 24 30" version="1.1" x="0px" y="0px"><title>action_006-detail-information-question-news</title><desc>Created with Sketch.</desc><g stroke="none" stroke-width="1" fill="none" fill-rule="evenodd"><g transform="translate(-264.000000, -72.000000)" fill-rule="nonzero" fill="#000000"><g transform="translate(264.000000, 72.000000)"><path d="M12,24 C5.372583,24 0,18.627417 0,12 C0,5.372583 5.372583,0 12,0 C18.627417,0 24,5.372583 24,12 C24,18.627417 18.627417,24 12,24 Z M11,8.5 C11,8.07601521 11.5255973,7.50302418 12.0125519,7.49996802 C12.5606051,7.49652839 13.0000771,7.91158472 13,8.33967977 C12.9998909,8.94627321 12.9249216,9.08676487 12.2447104,9.7175596 C12.2131012,9.74685098 12.2131012,9.74685098 12.1937074,9.76482643 C12.1735704,9.78349455 12.1735704,9.78349455 12.139572,9.81501979 C10.5829363,11.2599007 10,12.4741256 10,14.5 C10,14.7761424 10.2238576,15 10.5,15 L13.5,15 C13.7761424,15 14,14.7761424 14,14.5 C14,13.6694223 14.1127644,13.4410611 14.8606158,12.7468997 C14.8919343,12.7178598 14.8919343,12.7178598 14.9110719,12.7001179 C14.9308842,12.6817543 14.9308842,12.6817543 14.9644611,12.6506391 C16.4552077,11.2681935 16.9996697,10.1755369 17,8.34039966 C17.0004757,5.69676471 14.7625434,3.48263006 11.9874481,3.50004679 C9.27579467,3.51706535 7,5.90006358 7,8.5 C7,8.77614237 7.22385763,9 7.5,9 L10.5,9 C10.7761424,9 11,8.77614237 11,8.5 Z M13.5,16 L10.5,16 C10.2238576,16 10,16.2238576 10,16.5 L10,18.5 C10,18.7761424 10.2238576,19 10.5,19 L13.5,19 C13.7761424,19 14,18.7761424 14,18.5 L14,16.5 C14,16.2238576 13.7761424,16 13.5,16 Z"/></g></g></g><text x="0" y="39" fill="#000000" font-size="5px" font-weight="bold" font-family="'Helvetica Neue', Helvetica, Arial-Unicode, Arial, Sans-serif">Created by Xinh Studio</text><text x="0" y="44" fill="#000000" font-size="5px" font-weight="bold" font-family="'Helvetica Neue', Helvetica, Arial-Unicode, Arial, Sans-serif">from the Noun Project</text></svg>